<svg width="18" height="18" viewBox="0 0 18 18" fill="none" xmlns="http://www.w3.org/2000/svg">
<line x1="1.95703" y1="2.375" x2="6.95703" y2="2.375" stroke="black" stroke-width="2"/>
<line x1="3" y1="7" x2="3" y2="2" stroke="black" stroke-width="2"/>
<line y1="-1" x2="5" y2="-1" transform="matrix(1 0 0 -1 2 14.625)" stroke="black" stroke-width="2"/>
<line y1="-1" x2="5" y2="-1" transform="matrix(0 1 1 0 4.04297 11)" stroke="black" stroke-width="2"/>
<line x1="16" y1="15.625" x2="11" y2="15.625" stroke="black" stroke-width="2"/>
<line x1="14.957" y1="11" x2="14.957" y2="16" stroke="black" stroke-width="2"/>
<line y1="-1" x2="5" y2="-1" transform="matrix(-1 0 0 1 16 3.375)" stroke="black" stroke-width="2"/>
<line y1="-1" x2="5" y2="-1" transform="matrix(0 -1 -1 0 13.957 7)" stroke="black" stroke-width="2"/>
<line x1="9" y1="11" x2="9" y2="18" stroke="black" stroke-width="2"/>
<line x1="9" x2="9" y2="7" stroke="black" stroke-width="2"/>
<line y1="9" x2="7" y2="9" stroke="black" stroke-width="2"/>
<line x1="11" y1="9" x2="18" y2="9" stroke="black" stroke-width="2"/>
<line x1="9" y1="8" x2="9" y2="10" stroke="black" stroke-width="2"/>
</svg>
