<svg width="40" height="38" viewBox="0 0 40 38" fill="none" xmlns="http://www.w3.org/2000/svg">
<path d="M36.0625 0.25H12.625C11.7965 0.250827 11.0021 0.580333 10.4162 1.16621C9.83034 1.75208 9.50083 2.54645 9.5 3.375V26.1187C8.55427 25.5561 7.47544 25.2562 6.375 25.25C5.13887 25.25 3.9305 25.6166 2.90269 26.3033C1.87488 26.9901 1.0738 27.9662 0.600756 29.1082C0.127708 30.2503 0.00393718 31.5069 0.245095 32.7193C0.486252 33.9317 1.08151 35.0453 1.95559 35.9194C2.82966 36.7935 3.94331 37.3888 5.15569 37.6299C6.36807 37.8711 7.62474 37.7473 8.76677 37.2742C9.90881 36.8012 10.8849 36.0001 11.5717 34.9723C12.2584 33.9445 12.625 32.7361 12.625 31.5V12.75H36.0625V26.1187C35.1168 25.556 34.038 25.2561 32.9375 25.25C31.7014 25.25 30.493 25.6166 29.4652 26.3033C28.4374 26.9901 27.6363 27.9662 27.1633 29.1082C26.6902 30.2503 26.5664 31.5069 26.8076 32.7193C27.0488 33.9317 27.644 35.0453 28.5181 35.9194C29.3922 36.7935 30.5058 37.3888 31.7182 37.6299C32.9306 37.8711 34.1872 37.7473 35.3293 37.2742C36.4713 36.8012 37.4474 36.0001 38.1342 34.9723C38.8209 33.9445 39.1875 32.7361 39.1875 31.5V3.375C39.1867 2.54645 38.8572 1.75208 38.2713 1.16621C37.6854 0.580333 36.8911 0.250827 36.0625 0.25V0.25ZM6.375 34.625C5.75694 34.625 5.15275 34.4417 4.63885 34.0983C4.12494 33.755 3.7244 33.2669 3.48788 32.6959C3.25135 32.1249 3.18947 31.4965 3.31005 30.8903C3.43063 30.2842 3.72825 29.7273 4.16529 29.2903C4.60233 28.8533 5.15915 28.5556 5.76535 28.435C6.37154 28.3145 6.99987 28.3764 7.57089 28.6129C8.14191 28.8494 8.62997 29.2499 8.97335 29.7638C9.31672 30.2777 9.5 30.8819 9.5 31.5C9.49918 32.3285 9.16967 33.1229 8.5838 33.7088C7.99793 34.2947 7.20355 34.6242 6.375 34.625V34.625ZM32.9375 34.625C32.3194 34.625 31.7152 34.4417 31.2013 34.0983C30.6874 33.755 30.2869 33.2669 30.0504 32.6959C29.8139 32.1249 29.752 31.4965 29.8725 30.8903C29.9931 30.2842 30.2908 29.7273 30.7278 29.2903C31.1648 28.8533 31.7217 28.5556 32.3278 28.435C32.934 28.3145 33.5624 28.3764 34.1334 28.6129C34.7044 28.8494 35.1925 29.2499 35.5358 29.7638C35.8792 30.2777 36.0625 30.8819 36.0625 31.5C36.0613 32.3284 35.7316 33.1226 35.1458 33.7083C34.5601 34.2941 33.7659 34.6238 32.9375 34.625ZM12.625 3.375H36.0625V9.625H12.625V3.375Z" fill="white"/>
</svg>
