<svg width="44" height="44" viewBox="0 0 44 44" fill="none" xmlns="http://www.w3.org/2000/svg">
<path d="M38.2656 7.9375L43.875 2.32813L41.6719 0.125L36.0625 5.73438L30.4531 0.125L28.25 2.32813L33.8594 7.9375L28.25 13.5469L30.4531 15.75L36.0625 10.1406L41.6719 15.75L43.875 13.5469L38.2656 7.9375ZM34.5 20.4375V32.2437C33.5543 31.6811 32.4754 31.3812 31.375 31.375C30.1389 31.375 28.9305 31.7416 27.9027 32.4283C26.8749 33.1151 26.0738 34.0912 25.6008 35.2332C25.1277 36.3753 25.0039 37.6319 25.2451 38.8443C25.4863 40.0567 26.0815 41.1703 26.9556 42.0444C27.8297 42.9185 28.9433 43.5138 30.1557 43.7549C31.3681 43.9961 32.6247 43.8723 33.7668 43.3992C34.9088 42.9262 35.8849 42.1251 36.5717 41.0973C37.2584 40.0695 37.625 38.8611 37.625 37.625V20.4375H34.5ZM31.375 40.75C30.7569 40.75 30.1527 40.5667 29.6388 40.2233C29.1249 39.88 28.7244 39.3919 28.4879 38.8209C28.2514 38.2499 28.1895 37.6215 28.31 37.0153C28.4306 36.4092 28.7283 35.8523 29.1653 35.4153C29.6023 34.9783 30.1592 34.6806 30.7653 34.56C31.3715 34.4395 31.9999 34.5014 32.5709 34.7379C33.1419 34.9744 33.63 35.3749 33.9733 35.8888C34.3167 36.4027 34.5 37.0069 34.5 37.625C34.4988 38.4534 34.1691 39.2476 33.5833 39.8333C32.9976 40.4191 32.2034 40.7488 31.375 40.75V40.75ZM23.5625 6.375H12.625C11.7965 6.37583 11.0021 6.70533 10.4162 7.29121C9.83034 7.87708 9.50083 8.67145 9.5 9.5V32.2437C8.55424 31.6812 7.47543 31.3812 6.375 31.375C5.13887 31.375 3.9305 31.7416 2.90269 32.4283C1.87488 33.1151 1.0738 34.0912 0.600756 35.2332C0.127708 36.3753 0.00393718 37.6319 0.245095 38.8443C0.486252 40.0567 1.08151 41.1703 1.95559 42.0444C2.82966 42.9185 3.94331 43.5138 5.15569 43.7549C6.36807 43.9961 7.62474 43.8723 8.76677 43.3992C9.90881 42.9262 10.8849 42.1251 11.5717 41.0973C12.2584 40.0695 12.625 38.8611 12.625 37.625V9.5H23.5625V6.375ZM6.375 40.75C5.75694 40.75 5.15275 40.5667 4.63885 40.2233C4.12494 39.88 3.7244 39.3919 3.48788 38.8209C3.25135 38.2499 3.18947 37.6215 3.31005 37.0153C3.43063 36.4092 3.72825 35.8523 4.16529 35.4153C4.60233 34.9783 5.15915 34.6806 5.76535 34.56C6.37154 34.4395 6.99987 34.5014 7.57089 34.7379C8.14191 34.9744 8.62997 35.3749 8.97335 35.8888C9.31672 36.4027 9.5 37.0069 9.5 37.625C9.49918 38.4535 9.16967 39.2479 8.5838 39.8338C7.99793 40.4197 7.20355 40.7492 6.375 40.75V40.75Z" fill="white"/>
</svg>
