<svg width="170" height="513" viewBox="0 0 170 513" fill="none" xmlns="http://www.w3.org/2000/svg">
<path d="M11 121L85 7V357H61L11 121Z" fill="url(#paint0_linear_21_3)" stroke="#524848" stroke-width="4"/>
<path d="M163 121L89 7V357H113L163 121Z" fill="url(#paint1_linear_21_3)" stroke="#524848" stroke-width="4"/>
<path d="M122 357H83V409H122L166 380.347L122 357Z" fill="url(#paint2_linear_21_3)" stroke="#524848" stroke-width="4"/>
<path d="M48 357H87V409H48L4 380.347L48 357Z" fill="url(#paint3_linear_21_3)" stroke="#524848" stroke-width="4"/>
<path d="M66 511V409H109V511H66Z" fill="#F8DD80" stroke="#524848" stroke-width="4"/>
<path d="M66 414L109 438V462L66 438V462L109 481V496L66 481V511H109" stroke="#524848" stroke-width="4"/>
<defs>
<linearGradient id="paint0_linear_21_3" x1="69" y1="7" x2="-32" y2="7" gradientUnits="userSpaceOnUse">
<stop stop-color="#B18CFF"/>
<stop offset="1" stop-color="white"/>
</linearGradient>
<linearGradient id="paint1_linear_21_3" x1="105" y1="7" x2="206" y2="7" gradientUnits="userSpaceOnUse">
<stop stop-color="#B18CFF"/>
<stop offset="1" stop-color="white"/>
</linearGradient>
<linearGradient id="paint2_linear_21_3" x1="92" y1="388" x2="206" y2="383" gradientUnits="userSpaceOnUse">
<stop stop-color="#D28C04"/>
<stop offset="1" stop-color="#D6D1C8"/>
</linearGradient>
<linearGradient id="paint3_linear_21_3" x1="78" y1="388" x2="-36" y2="383" gradientUnits="userSpaceOnUse">
<stop stop-color="#D28C04"/>
<stop offset="1" stop-color="#D6D1C8"/>
</linearGradient>
</defs>
</svg>
